<mxfile host="www.draw.io" modified="2019-10-18T00:55:40.590Z" agent="Mozilla/5.0 (Windows NT 10.0; WOW64) AppleWebKit/537.36 (KHTML, like Gecko) Chrome/70.0.3538.25 Safari/537.36 Core/1.70.3732.400 QQBrowser/10.5.3819.400" etag="1jKH_Zzg-fX05o5DEJlZ" version="12.1.3" type="github" pages="1">
  <diagram name="Page-1" id="74e2e168-ea6b-b213-b513-2b3c1d86103e">
    <mxGraphModel dx="1024" dy="1389" grid="1" gridSize="10" guides="1" tooltips="1" connect="1" arrows="1" fold="1" page="1" pageScale="1" pageWidth="1100" pageHeight="850" background="#ffffff" math="0" shadow="0">
      <root>
        <mxCell id="0"/>
        <mxCell id="1" parent="0"/>
        <mxCell id="77e6c97f196da883-1" value="原料仓" style="swimlane;html=1;childLayout=stackLayout;startSize=20;rounded=0;shadow=0;labelBackgroundColor=none;strokeColor=#000000;strokeWidth=1;fillColor=#ffffff;fontFamily=Verdana;fontSize=8;fontColor=#000000;align=center;" parent="1" vertex="1">
          <mxGeometry x="70" y="-40" width="720" height="2400" as="geometry"/>
        </mxCell>
        <mxCell id="77e6c97f196da883-2" value="ERP" style="swimlane;html=1;startSize=20;" parent="77e6c97f196da883-1" vertex="1">
          <mxGeometry y="20" width="325" height="2380" as="geometry"/>
        </mxCell>
        <mxCell id="77e6c97f196da883-8" value="来料收货单" style="rounded=1;whiteSpace=wrap;html=1;shadow=0;labelBackgroundColor=none;strokeColor=#000000;strokeWidth=1;fillColor=#ffffff;fontFamily=Verdana;fontSize=8;fontColor=#000000;align=center;" parent="77e6c97f196da883-2" vertex="1">
          <mxGeometry x="20" y="315" width="100" height="36" as="geometry"/>
        </mxCell>
        <mxCell id="77e6c97f196da883-9" value="&lt;span style=&quot;font-size: 8px&quot;&gt;IQC检验结果回传&lt;/span&gt;" style="rounded=1;whiteSpace=wrap;html=1;shadow=0;labelBackgroundColor=none;strokeColor=#000000;strokeWidth=1;fillColor=#ffffff;fontFamily=Verdana;fontSize=8;fontColor=#000000;align=center;" parent="77e6c97f196da883-2" vertex="1">
          <mxGeometry x="20" y="410" width="100" height="36" as="geometry"/>
        </mxCell>
        <mxCell id="0Abd1LJX1tRPUPVhs411-5" value="入库单" style="rounded=1;whiteSpace=wrap;html=1;shadow=0;labelBackgroundColor=none;strokeColor=#000000;strokeWidth=1;fillColor=#ffffff;fontFamily=Verdana;fontSize=8;fontColor=#000000;align=center;" parent="77e6c97f196da883-2" vertex="1">
          <mxGeometry x="20" y="505" width="100" height="36" as="geometry"/>
        </mxCell>
        <mxCell id="0Abd1LJX1tRPUPVhs411-6" value="推送IQC待检验，MES做IQC检验" style="text;html=1;whiteSpace=wrap;" parent="77e6c97f196da883-2" vertex="1">
          <mxGeometry x="147.5" y="290" width="125" height="30" as="geometry"/>
        </mxCell>
        <mxCell id="0Abd1LJX1tRPUPVhs411-8" value="IQC检验结果回抛" style="text;html=1;" parent="77e6c97f196da883-2" vertex="1">
          <mxGeometry x="150" y="395" width="120" height="30" as="geometry"/>
        </mxCell>
        <mxCell id="0Abd1LJX1tRPUPVhs411-10" value="入库作业依据" style="text;html=1;" parent="77e6c97f196da883-2" vertex="1">
          <mxGeometry x="150" y="493" width="100" height="30" as="geometry"/>
        </mxCell>
        <mxCell id="0Abd1LJX1tRPUPVhs411-16" value="&lt;span style=&quot;font-size: 8px&quot;&gt;入库资料回传&lt;/span&gt;" style="rounded=1;whiteSpace=wrap;html=1;shadow=0;labelBackgroundColor=none;strokeColor=#000000;strokeWidth=1;fillColor=#ffffff;fontFamily=Verdana;fontSize=8;fontColor=#000000;align=center;" parent="77e6c97f196da883-2" vertex="1">
          <mxGeometry x="20" y="640" width="100" height="36" as="geometry"/>
        </mxCell>
        <mxCell id="0Abd1LJX1tRPUPVhs411-17" value="入库作业详情回抛" style="text;html=1;" parent="77e6c97f196da883-2" vertex="1">
          <mxGeometry x="150" y="628" width="120" height="30" as="geometry"/>
        </mxCell>
        <mxCell id="0Abd1LJX1tRPUPVhs411-29" value="&lt;span style=&quot;font-size: 8px&quot;&gt;工单料表&lt;/span&gt;" style="rounded=1;whiteSpace=wrap;html=1;shadow=0;labelBackgroundColor=none;strokeColor=#000000;strokeWidth=1;fillColor=#ffffff;fontFamily=Verdana;fontSize=8;fontColor=#000000;align=center;" parent="77e6c97f196da883-2" vertex="1">
          <mxGeometry x="20" y="1267.5" width="100" height="36" as="geometry"/>
        </mxCell>
        <mxCell id="0Abd1LJX1tRPUPVhs411-20" value="入库作业依据" style="text;html=1;" parent="77e6c97f196da883-2" vertex="1">
          <mxGeometry x="130" y="1237.5" width="100" height="30" as="geometry"/>
        </mxCell>
        <mxCell id="0Abd1LJX1tRPUPVhs411-22" value="实际备料数据回传(ERP需使用该资料做工单领料单及超领单)" style="text;html=1;whiteSpace=wrap;" parent="77e6c97f196da883-2" vertex="1">
          <mxGeometry x="147.5" y="1460" width="120" height="60" as="geometry"/>
        </mxCell>
        <mxCell id="0Abd1LJX1tRPUPVhs411-32" value="&lt;span style=&quot;font-size: 8px&quot;&gt;物料半成品入库数据回抛&lt;/span&gt;" style="rounded=1;whiteSpace=wrap;html=1;shadow=0;labelBackgroundColor=none;strokeColor=#000000;strokeWidth=1;fillColor=#ffffff;fontFamily=Verdana;fontSize=8;fontColor=#000000;align=center;" parent="77e6c97f196da883-2" vertex="1">
          <mxGeometry x="20" y="1972" width="100" height="36" as="geometry"/>
        </mxCell>
        <mxCell id="0Abd1LJX1tRPUPVhs411-34" value="半成品资料回传" style="text;html=1;" parent="77e6c97f196da883-2" vertex="1">
          <mxGeometry x="162.5" y="1960" width="110" height="30" as="geometry"/>
        </mxCell>
        <mxCell id="0Abd1LJX1tRPUPVhs411-66" value="原材物料调拨(清除MES库位信息，更新仓库信息，物料需重新上架)" style="text;html=1;whiteSpace=wrap;" parent="77e6c97f196da883-2" vertex="1">
          <mxGeometry x="137.5" y="779.800048828125" width="165" height="30" as="geometry"/>
        </mxCell>
        <mxCell id="0Abd1LJX1tRPUPVhs411-70" value="原材类杂收、杂发单据" style="text;html=1;whiteSpace=wrap;" parent="77e6c97f196da883-2" vertex="1">
          <mxGeometry x="140" y="970.0999755859375" width="165" height="30" as="geometry"/>
        </mxCell>
        <mxCell id="0Abd1LJX1tRPUPVhs411-79" value="调拨结果" style="text;html=1;" parent="77e6c97f196da883-2" vertex="1">
          <mxGeometry x="140" y="877.800048828125" width="120" height="30" as="geometry"/>
        </mxCell>
        <mxCell id="0Abd1LJX1tRPUPVhs411-83" value="&lt;span style=&quot;font-size: 8px&quot;&gt;调拨结果&lt;/span&gt;" style="rounded=1;whiteSpace=wrap;html=1;shadow=0;labelBackgroundColor=none;strokeColor=#000000;strokeWidth=1;fillColor=#ffffff;fontFamily=Verdana;fontSize=8;fontColor=#000000;align=center;" parent="77e6c97f196da883-2" vertex="1">
          <mxGeometry x="20" y="889.800048828125" width="100" height="36" as="geometry"/>
        </mxCell>
        <mxCell id="0Abd1LJX1tRPUPVhs411-58" value="&lt;span style=&quot;font-size: 8px&quot;&gt;超领&lt;/span&gt;" style="rounded=1;whiteSpace=wrap;html=1;shadow=0;labelBackgroundColor=none;strokeColor=#000000;strokeWidth=1;fillColor=#ffffff;fontFamily=Verdana;fontSize=8;fontColor=#000000;align=center;" parent="77e6c97f196da883-2" vertex="1">
          <mxGeometry x="20" y="1660" width="100" height="36" as="geometry"/>
        </mxCell>
        <mxCell id="0Abd1LJX1tRPUPVhs411-62" value="&lt;span style=&quot;font-size: 8px&quot;&gt;超领资料回传&lt;/span&gt;" style="rounded=1;whiteSpace=wrap;html=1;shadow=0;labelBackgroundColor=none;strokeColor=#000000;strokeWidth=1;fillColor=#ffffff;fontFamily=Verdana;fontSize=8;fontColor=#000000;align=center;" parent="77e6c97f196da883-2" vertex="1">
          <mxGeometry x="20" y="1864" width="100" height="36" as="geometry"/>
        </mxCell>
        <mxCell id="0Abd1LJX1tRPUPVhs411-56" value="超领单，基于单据信息发料(MES强制分盘)" style="text;html=1;whiteSpace=wrap;" parent="77e6c97f196da883-2" vertex="1">
          <mxGeometry x="160" y="1610" width="100" height="52" as="geometry"/>
        </mxCell>
        <mxCell id="0Abd1LJX1tRPUPVhs411-63" value="超领单作业信息回传" style="text;html=1;" parent="77e6c97f196da883-2" vertex="1">
          <mxGeometry x="162.29998779296875" y="1852" width="110" height="30" as="geometry"/>
        </mxCell>
        <mxCell id="0Abd1LJX1tRPUPVhs411-46" value="&lt;span style=&quot;font-size: 8px&quot;&gt;工单退料&lt;/span&gt;" style="rounded=1;whiteSpace=wrap;html=1;shadow=0;labelBackgroundColor=none;strokeColor=#000000;strokeWidth=1;fillColor=#ffffff;fontFamily=Verdana;fontSize=8;fontColor=#000000;align=center;" parent="77e6c97f196da883-2" vertex="1">
          <mxGeometry x="25" y="2206" width="100" height="36" as="geometry"/>
        </mxCell>
        <mxCell id="0Abd1LJX1tRPUPVhs411-141" value="按工单抛转退料详细数据，ERP自动生成退料单" style="text;html=1;whiteSpace=wrap;" parent="77e6c97f196da883-2" vertex="1">
          <mxGeometry x="165" y="2166" width="130" height="30" as="geometry"/>
        </mxCell>
        <mxCell id="0Abd1LJX1tRPUPVhs411-156" value="" style="endArrow=none;html=1;" parent="77e6c97f196da883-2" edge="1">
          <mxGeometry width="50" height="50" relative="1" as="geometry">
            <mxPoint x="-30" y="1560" as="sourcePoint"/>
            <mxPoint x="720" y="1560" as="targetPoint"/>
          </mxGeometry>
        </mxCell>
        <mxCell id="0Abd1LJX1tRPUPVhs411-157" value="" style="endArrow=none;html=1;" parent="77e6c97f196da883-2" edge="1">
          <mxGeometry width="50" height="50" relative="1" as="geometry">
            <mxPoint x="-30" y="1930" as="sourcePoint"/>
            <mxPoint x="720" y="1930" as="targetPoint"/>
          </mxGeometry>
        </mxCell>
        <mxCell id="0Abd1LJX1tRPUPVhs411-158" value="" style="endArrow=none;html=1;strokeWidth=2;" parent="77e6c97f196da883-2" edge="1">
          <mxGeometry width="50" height="50" relative="1" as="geometry">
            <mxPoint x="-30" y="2379.5" as="sourcePoint"/>
            <mxPoint x="720" y="2379.5" as="targetPoint"/>
          </mxGeometry>
        </mxCell>
        <mxCell id="77e6c97f196da883-26" style="edgeStyle=orthogonalEdgeStyle;rounded=1;html=1;labelBackgroundColor=none;startArrow=none;startFill=0;startSize=5;endArrow=classicThin;endFill=1;endSize=5;jettySize=auto;orthogonalLoop=1;strokeColor=#000000;strokeWidth=1;fontFamily=Verdana;fontSize=8;fontColor=#000000;" parent="77e6c97f196da883-1" source="77e6c97f196da883-8" target="77e6c97f196da883-11" edge="1">
          <mxGeometry relative="1" as="geometry"/>
        </mxCell>
        <mxCell id="0Abd1LJX1tRPUPVhs411-4" style="edgeStyle=orthogonalEdgeStyle;rounded=0;orthogonalLoop=1;jettySize=auto;html=1;" parent="77e6c97f196da883-1" source="0Abd1LJX1tRPUPVhs411-1" target="77e6c97f196da883-9" edge="1">
          <mxGeometry relative="1" as="geometry"/>
        </mxCell>
        <mxCell id="0Abd1LJX1tRPUPVhs411-9" style="edgeStyle=orthogonalEdgeStyle;rounded=0;orthogonalLoop=1;jettySize=auto;html=1;entryX=0;entryY=0.5;entryDx=0;entryDy=0;" parent="77e6c97f196da883-1" source="0Abd1LJX1tRPUPVhs411-5" target="77e6c97f196da883-12" edge="1">
          <mxGeometry relative="1" as="geometry"/>
        </mxCell>
        <mxCell id="0Abd1LJX1tRPUPVhs411-15" value="" style="edgeStyle=orthogonalEdgeStyle;rounded=0;orthogonalLoop=1;jettySize=auto;html=1;entryX=1;entryY=0.5;entryDx=0;entryDy=0;" parent="77e6c97f196da883-1" source="0Abd1LJX1tRPUPVhs411-11" target="0Abd1LJX1tRPUPVhs411-16" edge="1">
          <mxGeometry relative="1" as="geometry">
            <mxPoint x="160" y="695" as="targetPoint"/>
          </mxGeometry>
        </mxCell>
        <mxCell id="0Abd1LJX1tRPUPVhs411-121" style="edgeStyle=orthogonalEdgeStyle;rounded=0;orthogonalLoop=1;jettySize=auto;html=1;" parent="77e6c97f196da883-1" source="0Abd1LJX1tRPUPVhs411-117" target="0Abd1LJX1tRPUPVhs411-119" edge="1">
          <mxGeometry relative="1" as="geometry"/>
        </mxCell>
        <mxCell id="0Abd1LJX1tRPUPVhs411-122" style="edgeStyle=orthogonalEdgeStyle;rounded=0;orthogonalLoop=1;jettySize=auto;html=1;exitX=0.5;exitY=1;exitDx=0;exitDy=0;entryX=1;entryY=0.5;entryDx=0;entryDy=0;" parent="77e6c97f196da883-1" source="0Abd1LJX1tRPUPVhs411-119" target="0Abd1LJX1tRPUPVhs411-120" edge="1">
          <mxGeometry relative="1" as="geometry"/>
        </mxCell>
        <mxCell id="0Abd1LJX1tRPUPVhs411-135" style="edgeStyle=orthogonalEdgeStyle;rounded=0;orthogonalLoop=1;jettySize=auto;html=1;entryX=0;entryY=0.5;entryDx=0;entryDy=0;" parent="77e6c97f196da883-1" source="0Abd1LJX1tRPUPVhs411-25" target="0Abd1LJX1tRPUPVhs411-129" edge="1">
          <mxGeometry relative="1" as="geometry"/>
        </mxCell>
        <mxCell id="0Abd1LJX1tRPUPVhs411-30" style="edgeStyle=orthogonalEdgeStyle;rounded=0;orthogonalLoop=1;jettySize=auto;html=1;exitX=1;exitY=0.5;exitDx=0;exitDy=0;" parent="77e6c97f196da883-1" source="0Abd1LJX1tRPUPVhs411-29" target="0Abd1LJX1tRPUPVhs411-24" edge="1">
          <mxGeometry relative="1" as="geometry">
            <mxPoint x="350" y="1270" as="targetPoint"/>
            <Array as="points">
              <mxPoint x="230" y="1306"/>
              <mxPoint x="230" y="1274"/>
            </Array>
          </mxGeometry>
        </mxCell>
        <mxCell id="0Abd1LJX1tRPUPVhs411-81" style="edgeStyle=orthogonalEdgeStyle;rounded=0;orthogonalLoop=1;jettySize=auto;html=1;" parent="77e6c97f196da883-1" source="0Abd1LJX1tRPUPVhs411-80" target="0Abd1LJX1tRPUPVhs411-83" edge="1">
          <mxGeometry relative="1" as="geometry">
            <mxPoint x="110" y="927.800048828125" as="targetPoint"/>
          </mxGeometry>
        </mxCell>
        <mxCell id="0Abd1LJX1tRPUPVhs411-57" style="edgeStyle=orthogonalEdgeStyle;rounded=0;orthogonalLoop=1;jettySize=auto;html=1;entryX=0;entryY=0.5;entryDx=0;entryDy=0;" parent="77e6c97f196da883-1" source="0Abd1LJX1tRPUPVhs411-58" target="0Abd1LJX1tRPUPVhs411-59" edge="1">
          <mxGeometry relative="1" as="geometry"/>
        </mxCell>
        <mxCell id="0Abd1LJX1tRPUPVhs411-65" style="edgeStyle=orthogonalEdgeStyle;rounded=0;orthogonalLoop=1;jettySize=auto;html=1;" parent="77e6c97f196da883-1" source="0Abd1LJX1tRPUPVhs411-64" target="0Abd1LJX1tRPUPVhs411-62" edge="1">
          <mxGeometry relative="1" as="geometry"/>
        </mxCell>
        <mxCell id="0Abd1LJX1tRPUPVhs411-33" style="edgeStyle=orthogonalEdgeStyle;rounded=0;orthogonalLoop=1;jettySize=auto;html=1;" parent="77e6c97f196da883-1" source="0Abd1LJX1tRPUPVhs411-31" target="0Abd1LJX1tRPUPVhs411-32" edge="1">
          <mxGeometry relative="1" as="geometry"/>
        </mxCell>
        <mxCell id="0Abd1LJX1tRPUPVhs411-49" style="edgeStyle=orthogonalEdgeStyle;rounded=0;orthogonalLoop=1;jettySize=auto;html=1;" parent="77e6c97f196da883-1" source="0Abd1LJX1tRPUPVhs411-48" target="0Abd1LJX1tRPUPVhs411-46" edge="1">
          <mxGeometry relative="1" as="geometry"/>
        </mxCell>
        <mxCell id="0Abd1LJX1tRPUPVhs411-140" style="edgeStyle=orthogonalEdgeStyle;rounded=0;orthogonalLoop=1;jettySize=auto;html=1;entryX=0.5;entryY=0;entryDx=0;entryDy=0;" parent="77e6c97f196da883-1" source="0Abd1LJX1tRPUPVhs411-139" target="0Abd1LJX1tRPUPVhs411-48" edge="1">
          <mxGeometry relative="1" as="geometry"/>
        </mxCell>
        <mxCell id="77e6c97f196da883-3" value="MES" style="swimlane;html=1;startSize=20;" parent="77e6c97f196da883-1" vertex="1">
          <mxGeometry x="325" y="20" width="160" height="2380" as="geometry"/>
        </mxCell>
        <mxCell id="0Abd1LJX1tRPUPVhs411-3" style="edgeStyle=orthogonalEdgeStyle;rounded=0;orthogonalLoop=1;jettySize=auto;html=1;entryX=0.5;entryY=0;entryDx=0;entryDy=0;" parent="77e6c97f196da883-3" source="77e6c97f196da883-11" target="0Abd1LJX1tRPUPVhs411-1" edge="1">
          <mxGeometry relative="1" as="geometry"/>
        </mxCell>
        <mxCell id="77e6c97f196da883-11" value="来料检验" style="rounded=1;whiteSpace=wrap;html=1;shadow=0;labelBackgroundColor=none;strokeColor=#000000;strokeWidth=1;fillColor=#ffffff;fontFamily=Verdana;fontSize=8;fontColor=#000000;align=center;" parent="77e6c97f196da883-3" vertex="1">
          <mxGeometry x="30" y="315" width="100" height="36" as="geometry"/>
        </mxCell>
        <mxCell id="0Abd1LJX1tRPUPVhs411-1" value="检验" style="rounded=1;whiteSpace=wrap;html=1;shadow=0;labelBackgroundColor=none;strokeColor=#000000;strokeWidth=1;fillColor=#ffffff;fontFamily=Verdana;fontSize=8;fontColor=#000000;align=center;" parent="77e6c97f196da883-3" vertex="1">
          <mxGeometry x="30" y="410" width="100" height="36" as="geometry"/>
        </mxCell>
        <mxCell id="77e6c97f196da883-12" value="&lt;span style=&quot;font-size: 8px&quot;&gt;待入库看板&lt;/span&gt;" style="rounded=1;whiteSpace=wrap;html=1;shadow=0;labelBackgroundColor=none;strokeColor=#000000;strokeWidth=1;fillColor=#ffffff;fontFamily=Verdana;fontSize=8;fontColor=#000000;align=center;" parent="77e6c97f196da883-3" vertex="1">
          <mxGeometry x="30" y="505" width="100" height="36" as="geometry"/>
        </mxCell>
        <mxCell id="0Abd1LJX1tRPUPVhs411-11" value="&lt;span style=&quot;font-size: 8px&quot;&gt;抛送ERP&lt;/span&gt;" style="rounded=1;whiteSpace=wrap;html=1;shadow=0;labelBackgroundColor=none;strokeColor=#000000;strokeWidth=1;fillColor=#ffffff;fontFamily=Verdana;fontSize=8;fontColor=#000000;align=center;" parent="77e6c97f196da883-3" vertex="1">
          <mxGeometry x="30" y="640" width="100" height="36" as="geometry"/>
        </mxCell>
        <mxCell id="0Abd1LJX1tRPUPVhs411-19" value="工单信息" style="rounded=1;whiteSpace=wrap;html=1;shadow=0;labelBackgroundColor=none;strokeColor=#000000;strokeWidth=1;fillColor=#ffffff;fontFamily=Verdana;fontSize=8;fontColor=#000000;align=center;" parent="77e6c97f196da883-3" vertex="1">
          <mxGeometry x="-305" y="1200" width="100" height="36" as="geometry"/>
        </mxCell>
        <mxCell id="0Abd1LJX1tRPUPVhs411-21" value="&lt;span style=&quot;font-size: 8px&quot;&gt;备料数据回传&lt;/span&gt;" style="rounded=1;whiteSpace=wrap;html=1;shadow=0;labelBackgroundColor=none;strokeColor=#000000;strokeWidth=1;fillColor=#ffffff;fontFamily=Verdana;fontSize=8;fontColor=#000000;align=center;" parent="77e6c97f196da883-3" vertex="1">
          <mxGeometry x="-305" y="1501.5" width="100" height="36" as="geometry"/>
        </mxCell>
        <mxCell id="0Abd1LJX1tRPUPVhs411-125" style="edgeStyle=orthogonalEdgeStyle;rounded=0;orthogonalLoop=1;jettySize=auto;html=1;" parent="77e6c97f196da883-3" source="0Abd1LJX1tRPUPVhs411-24" target="0Abd1LJX1tRPUPVhs411-117" edge="1">
          <mxGeometry relative="1" as="geometry"/>
        </mxCell>
        <mxCell id="0Abd1LJX1tRPUPVhs411-24" value="&lt;span style=&quot;font-size: 8px&quot;&gt;工单料表&lt;/span&gt;" style="rounded=1;whiteSpace=wrap;html=1;shadow=0;labelBackgroundColor=none;strokeColor=#000000;strokeWidth=1;fillColor=#ffffff;fontFamily=Verdana;fontSize=8;fontColor=#000000;align=center;" parent="77e6c97f196da883-3" vertex="1">
          <mxGeometry x="30" y="1236" width="100" height="36" as="geometry"/>
        </mxCell>
        <mxCell id="0Abd1LJX1tRPUPVhs411-25" value="&lt;span style=&quot;font-size: 8px&quot;&gt;发料&lt;/span&gt;" style="rounded=1;whiteSpace=wrap;html=1;shadow=0;labelBackgroundColor=none;strokeColor=#000000;strokeWidth=1;fillColor=#ffffff;fontFamily=Verdana;fontSize=8;fontColor=#000000;align=center;" parent="77e6c97f196da883-3" vertex="1">
          <mxGeometry x="30" y="1501.5" width="100" height="36" as="geometry"/>
        </mxCell>
        <mxCell id="0Abd1LJX1tRPUPVhs411-26" style="edgeStyle=orthogonalEdgeStyle;rounded=0;orthogonalLoop=1;jettySize=auto;html=1;entryX=0;entryY=0.5;entryDx=0;entryDy=0;" parent="77e6c97f196da883-3" source="0Abd1LJX1tRPUPVhs411-19" target="0Abd1LJX1tRPUPVhs411-24" edge="1">
          <mxGeometry relative="1" as="geometry">
            <Array as="points">
              <mxPoint x="-95" y="1218"/>
              <mxPoint x="-95" y="1254"/>
            </Array>
          </mxGeometry>
        </mxCell>
        <mxCell id="0Abd1LJX1tRPUPVhs411-27" value="" style="edgeStyle=orthogonalEdgeStyle;rounded=0;orthogonalLoop=1;jettySize=auto;html=1;entryX=1;entryY=0.5;entryDx=0;entryDy=0;" parent="77e6c97f196da883-3" source="0Abd1LJX1tRPUPVhs411-25" target="0Abd1LJX1tRPUPVhs411-21" edge="1">
          <mxGeometry relative="1" as="geometry">
            <mxPoint x="-235" y="1496.5" as="targetPoint"/>
          </mxGeometry>
        </mxCell>
        <mxCell id="0Abd1LJX1tRPUPVhs411-31" value="&lt;span style=&quot;font-size: 8px&quot;&gt;半成品入库-&lt;/span&gt;发料" style="rounded=1;whiteSpace=wrap;html=1;shadow=0;labelBackgroundColor=none;strokeColor=#000000;strokeWidth=1;fillColor=#ffffff;fontFamily=Verdana;fontSize=8;fontColor=#000000;align=center;" parent="77e6c97f196da883-3" vertex="1">
          <mxGeometry x="30" y="1972" width="100" height="36" as="geometry"/>
        </mxCell>
        <mxCell id="0Abd1LJX1tRPUPVhs411-67" value="&lt;span style=&quot;font-size: 8px&quot;&gt;调拨&lt;/span&gt;" style="rounded=1;whiteSpace=wrap;html=1;shadow=0;labelBackgroundColor=none;strokeColor=#000000;strokeWidth=1;fillColor=#ffffff;fontFamily=Verdana;fontSize=8;fontColor=#000000;align=center;" parent="77e6c97f196da883-3" vertex="1">
          <mxGeometry x="-305" y="819.800048828125" width="100" height="36" as="geometry"/>
        </mxCell>
        <mxCell id="0Abd1LJX1tRPUPVhs411-68" value="&lt;span style=&quot;font-size: 8px&quot;&gt;调拨&lt;/span&gt;" style="rounded=1;whiteSpace=wrap;html=1;shadow=0;labelBackgroundColor=none;strokeColor=#000000;strokeWidth=1;fillColor=#ffffff;fontFamily=Verdana;fontSize=8;fontColor=#000000;align=center;" parent="77e6c97f196da883-3" vertex="1">
          <mxGeometry x="30" y="819.800048828125" width="100" height="36" as="geometry"/>
        </mxCell>
        <mxCell id="0Abd1LJX1tRPUPVhs411-69" style="edgeStyle=orthogonalEdgeStyle;rounded=0;orthogonalLoop=1;jettySize=auto;html=1;entryX=0;entryY=0.5;entryDx=0;entryDy=0;" parent="77e6c97f196da883-3" source="0Abd1LJX1tRPUPVhs411-67" target="0Abd1LJX1tRPUPVhs411-68" edge="1">
          <mxGeometry relative="1" as="geometry"/>
        </mxCell>
        <mxCell id="0Abd1LJX1tRPUPVhs411-71" value="&lt;span style=&quot;font-size: 8px&quot;&gt;杂收杂发&lt;/span&gt;" style="rounded=1;whiteSpace=wrap;html=1;shadow=0;labelBackgroundColor=none;strokeColor=#000000;strokeWidth=1;fillColor=#ffffff;fontFamily=Verdana;fontSize=8;fontColor=#000000;align=center;" parent="77e6c97f196da883-3" vertex="1">
          <mxGeometry x="-305" y="990.0999755859375" width="100" height="36" as="geometry"/>
        </mxCell>
        <mxCell id="0Abd1LJX1tRPUPVhs411-72" value="杂收杂发" style="rounded=1;whiteSpace=wrap;html=1;shadow=0;labelBackgroundColor=none;strokeColor=#000000;strokeWidth=1;fillColor=#ffffff;fontFamily=Verdana;fontSize=8;fontColor=#000000;align=center;" parent="77e6c97f196da883-3" vertex="1">
          <mxGeometry x="30" y="990.0999755859375" width="100" height="36" as="geometry"/>
        </mxCell>
        <mxCell id="0Abd1LJX1tRPUPVhs411-73" style="edgeStyle=orthogonalEdgeStyle;rounded=0;orthogonalLoop=1;jettySize=auto;html=1;entryX=0;entryY=0.5;entryDx=0;entryDy=0;" parent="77e6c97f196da883-3" source="0Abd1LJX1tRPUPVhs411-71" target="0Abd1LJX1tRPUPVhs411-72" edge="1">
          <mxGeometry relative="1" as="geometry"/>
        </mxCell>
        <mxCell id="0Abd1LJX1tRPUPVhs411-80" value="抛送ERP" style="rounded=1;whiteSpace=wrap;html=1;shadow=0;labelBackgroundColor=none;strokeColor=#000000;strokeWidth=1;fillColor=#ffffff;fontFamily=Verdana;fontSize=8;fontColor=#000000;align=center;" parent="77e6c97f196da883-3" vertex="1">
          <mxGeometry x="30" y="889.800048828125" width="100" height="36" as="geometry"/>
        </mxCell>
        <mxCell id="0Abd1LJX1tRPUPVhs411-85" value="调拨结果" style="text;html=1;" parent="77e6c97f196da883-3" vertex="1">
          <mxGeometry x="-185" y="1050.0999755859375" width="120" height="30" as="geometry"/>
        </mxCell>
        <mxCell id="0Abd1LJX1tRPUPVhs411-86" value="杂收杂发结果" style="rounded=1;whiteSpace=wrap;html=1;shadow=0;labelBackgroundColor=none;strokeColor=#000000;strokeWidth=1;fillColor=#ffffff;fontFamily=Verdana;fontSize=8;fontColor=#000000;align=center;" parent="77e6c97f196da883-3" vertex="1">
          <mxGeometry x="-305" y="1062.0999755859375" width="100" height="36" as="geometry"/>
        </mxCell>
        <mxCell id="0Abd1LJX1tRPUPVhs411-87" value="抛送ERP" style="rounded=1;whiteSpace=wrap;html=1;shadow=0;labelBackgroundColor=none;strokeColor=#000000;strokeWidth=1;fillColor=#ffffff;fontFamily=Verdana;fontSize=8;fontColor=#000000;align=center;" parent="77e6c97f196da883-3" vertex="1">
          <mxGeometry x="30" y="1062.0999755859375" width="100" height="36" as="geometry"/>
        </mxCell>
        <mxCell id="0Abd1LJX1tRPUPVhs411-88" style="edgeStyle=orthogonalEdgeStyle;rounded=0;orthogonalLoop=1;jettySize=auto;html=1;" parent="77e6c97f196da883-3" source="0Abd1LJX1tRPUPVhs411-87" target="0Abd1LJX1tRPUPVhs411-86" edge="1">
          <mxGeometry relative="1" as="geometry">
            <mxPoint x="-285" y="1040.0999755859375" as="targetPoint"/>
          </mxGeometry>
        </mxCell>
        <mxCell id="0Abd1LJX1tRPUPVhs411-40" value="&lt;span style=&quot;font-size: 8px&quot;&gt;料号视图(最小包装量)&lt;/span&gt;" style="rounded=1;whiteSpace=wrap;html=1;shadow=0;labelBackgroundColor=none;strokeColor=#d79b00;strokeWidth=1;fillColor=#ffe6cc;fontFamily=Verdana;fontSize=8;align=center;" parent="77e6c97f196da883-3" vertex="1">
          <mxGeometry x="-305" y="108" width="100" height="36" as="geometry"/>
        </mxCell>
        <mxCell id="0Abd1LJX1tRPUPVhs411-36" value="料号信息同步保存" style="text;html=1;" parent="77e6c97f196da883-3" vertex="1">
          <mxGeometry x="-195" y="78" width="110" height="30" as="geometry"/>
        </mxCell>
        <mxCell id="0Abd1LJX1tRPUPVhs411-45" value="仓库基础信息" style="text;html=1;" parent="77e6c97f196da883-3" vertex="1">
          <mxGeometry x="-175" y="200" width="100" height="30" as="geometry"/>
        </mxCell>
        <mxCell id="0Abd1LJX1tRPUPVhs411-35" value="&lt;span style=&quot;font-size: 8px&quot;&gt;料号信息&lt;/span&gt;" style="rounded=1;whiteSpace=wrap;html=1;shadow=0;labelBackgroundColor=none;strokeColor=#000000;strokeWidth=1;fillColor=#ffffff;fontFamily=Verdana;fontSize=8;fontColor=#000000;align=center;" parent="77e6c97f196da883-3" vertex="1">
          <mxGeometry x="-305" y="50" width="100" height="36" as="geometry"/>
        </mxCell>
        <mxCell id="0Abd1LJX1tRPUPVhs411-37" value="&lt;span style=&quot;font-size: 8px&quot;&gt;料号信息管理&lt;/span&gt;" style="rounded=1;whiteSpace=wrap;html=1;shadow=0;labelBackgroundColor=none;strokeColor=#000000;strokeWidth=1;fillColor=#ffffff;fontFamily=Verdana;fontSize=8;fontColor=#000000;align=center;" parent="77e6c97f196da883-3" vertex="1">
          <mxGeometry x="30" y="78" width="100" height="36" as="geometry"/>
        </mxCell>
        <mxCell id="0Abd1LJX1tRPUPVhs411-38" style="edgeStyle=orthogonalEdgeStyle;rounded=0;orthogonalLoop=1;jettySize=auto;html=1;" parent="77e6c97f196da883-3" source="0Abd1LJX1tRPUPVhs411-35" target="0Abd1LJX1tRPUPVhs411-37" edge="1">
          <mxGeometry relative="1" as="geometry"/>
        </mxCell>
        <mxCell id="0Abd1LJX1tRPUPVhs411-42" value="&lt;span style=&quot;font-size: 8px&quot;&gt;仓别信息(视图)&lt;/span&gt;" style="rounded=1;whiteSpace=wrap;html=1;shadow=0;labelBackgroundColor=none;strokeColor=#d79b00;strokeWidth=1;fillColor=#ffe6cc;fontFamily=Verdana;fontSize=8;align=center;" parent="77e6c97f196da883-3" vertex="1">
          <mxGeometry x="-305" y="210" width="100" height="36" as="geometry"/>
        </mxCell>
        <mxCell id="0Abd1LJX1tRPUPVhs411-43" value="&lt;span style=&quot;font-size: 8px&quot;&gt;仓库信息管理&lt;/span&gt;" style="rounded=1;whiteSpace=wrap;html=1;shadow=0;labelBackgroundColor=none;strokeColor=#000000;strokeWidth=1;fillColor=#ffffff;fontFamily=Verdana;fontSize=8;fontColor=#000000;align=center;" parent="77e6c97f196da883-3" vertex="1">
          <mxGeometry x="30" y="210" width="100" height="36" as="geometry"/>
        </mxCell>
        <mxCell id="0Abd1LJX1tRPUPVhs411-44" style="edgeStyle=orthogonalEdgeStyle;rounded=0;orthogonalLoop=1;jettySize=auto;html=1;entryX=0;entryY=0.5;entryDx=0;entryDy=0;" parent="77e6c97f196da883-3" source="0Abd1LJX1tRPUPVhs411-42" target="0Abd1LJX1tRPUPVhs411-43" edge="1">
          <mxGeometry relative="1" as="geometry"/>
        </mxCell>
        <mxCell id="0Abd1LJX1tRPUPVhs411-41" style="edgeStyle=orthogonalEdgeStyle;rounded=0;orthogonalLoop=1;jettySize=auto;html=1;" parent="77e6c97f196da883-3" source="0Abd1LJX1tRPUPVhs411-40" target="0Abd1LJX1tRPUPVhs411-37" edge="1">
          <mxGeometry relative="1" as="geometry"/>
        </mxCell>
        <mxCell id="0Abd1LJX1tRPUPVhs411-106" value="&lt;span style=&quot;font-size: 8px&quot;&gt;生成reel_id&lt;/span&gt;" style="rounded=1;whiteSpace=wrap;html=1;shadow=0;labelBackgroundColor=none;strokeColor=#000000;strokeWidth=1;fillColor=#ffffff;fontFamily=Verdana;fontSize=8;fontColor=#000000;align=center;" parent="77e6c97f196da883-3" vertex="1">
          <mxGeometry x="30" y="570" width="100" height="36" as="geometry"/>
        </mxCell>
        <mxCell id="0Abd1LJX1tRPUPVhs411-107" value="" style="edgeStyle=orthogonalEdgeStyle;rounded=0;orthogonalLoop=1;jettySize=auto;html=1;" parent="77e6c97f196da883-3" source="77e6c97f196da883-12" target="0Abd1LJX1tRPUPVhs411-106" edge="1">
          <mxGeometry relative="1" as="geometry">
            <mxPoint x="475" y="501" as="sourcePoint"/>
            <mxPoint x="475" y="600" as="targetPoint"/>
          </mxGeometry>
        </mxCell>
        <mxCell id="0Abd1LJX1tRPUPVhs411-117" value="&lt;span style=&quot;font-size: 8px&quot;&gt;备料&lt;/span&gt;" style="rounded=1;whiteSpace=wrap;html=1;shadow=0;labelBackgroundColor=none;strokeColor=#000000;strokeWidth=1;fillColor=#ffffff;fontFamily=Verdana;fontSize=8;fontColor=#000000;align=center;" parent="77e6c97f196da883-3" vertex="1">
          <mxGeometry x="30" y="1350" width="100" height="36" as="geometry"/>
        </mxCell>
        <mxCell id="0Abd1LJX1tRPUPVhs411-120" value="完成备料" style="rounded=1;whiteSpace=wrap;html=1;shadow=0;labelBackgroundColor=none;strokeColor=#000000;strokeWidth=1;fillColor=#ffffff;fontFamily=Verdana;fontSize=8;fontColor=#000000;align=center;" parent="77e6c97f196da883-3" vertex="1">
          <mxGeometry x="30" y="1410" width="100" height="36" as="geometry"/>
        </mxCell>
        <mxCell id="0Abd1LJX1tRPUPVhs411-124" style="edgeStyle=orthogonalEdgeStyle;rounded=0;orthogonalLoop=1;jettySize=auto;html=1;exitX=0.5;exitY=1;exitDx=0;exitDy=0;entryX=0.5;entryY=0;entryDx=0;entryDy=0;" parent="77e6c97f196da883-3" source="0Abd1LJX1tRPUPVhs411-120" target="0Abd1LJX1tRPUPVhs411-25" edge="1">
          <mxGeometry relative="1" as="geometry">
            <mxPoint x="80" y="1490" as="targetPoint"/>
            <Array as="points"/>
          </mxGeometry>
        </mxCell>
        <mxCell id="0Abd1LJX1tRPUPVhs411-148" style="edgeStyle=orthogonalEdgeStyle;rounded=0;orthogonalLoop=1;jettySize=auto;html=1;entryX=0.5;entryY=0;entryDx=0;entryDy=0;" parent="77e6c97f196da883-3" source="0Abd1LJX1tRPUPVhs411-59" target="0Abd1LJX1tRPUPVhs411-147" edge="1">
          <mxGeometry relative="1" as="geometry"/>
        </mxCell>
        <mxCell id="0Abd1LJX1tRPUPVhs411-59" value="&lt;span style=&quot;font-size: 8px&quot;&gt;超领单据&lt;/span&gt;" style="rounded=1;whiteSpace=wrap;html=1;shadow=0;labelBackgroundColor=none;strokeColor=#000000;strokeWidth=1;fillColor=#ffffff;fontFamily=Verdana;fontSize=8;fontColor=#000000;align=center;" parent="77e6c97f196da883-3" vertex="1">
          <mxGeometry x="30" y="1660" width="100" height="36" as="geometry"/>
        </mxCell>
        <mxCell id="0Abd1LJX1tRPUPVhs411-64" value="&lt;span style=&quot;font-size: 8px&quot;&gt;抛送ERP&lt;/span&gt;" style="rounded=1;whiteSpace=wrap;html=1;shadow=0;labelBackgroundColor=none;strokeColor=#000000;strokeWidth=1;fillColor=#ffffff;fontFamily=Verdana;fontSize=8;fontColor=#000000;align=center;" parent="77e6c97f196da883-3" vertex="1">
          <mxGeometry x="30" y="1864" width="100" height="36" as="geometry"/>
        </mxCell>
        <mxCell id="0Abd1LJX1tRPUPVhs411-137" style="edgeStyle=orthogonalEdgeStyle;rounded=0;orthogonalLoop=1;jettySize=auto;html=1;exitX=0.5;exitY=1;exitDx=0;exitDy=0;entryX=0.5;entryY=0;entryDx=0;entryDy=0;" parent="77e6c97f196da883-3" target="0Abd1LJX1tRPUPVhs411-64" edge="1">
          <mxGeometry relative="1" as="geometry">
            <mxPoint x="80" y="1820" as="sourcePoint"/>
          </mxGeometry>
        </mxCell>
        <mxCell id="0Abd1LJX1tRPUPVhs411-139" value="&lt;span style=&quot;font-size: 8px&quot;&gt;工单料表-退料开关&lt;/span&gt;" style="rounded=1;whiteSpace=wrap;html=1;shadow=0;labelBackgroundColor=none;strokeColor=#000000;strokeWidth=1;fillColor=#ffffff;fontFamily=Verdana;fontSize=8;fontColor=#000000;align=center;" parent="77e6c97f196da883-3" vertex="1">
          <mxGeometry x="35" y="2140" width="100" height="36" as="geometry"/>
        </mxCell>
        <mxCell id="0Abd1LJX1tRPUPVhs411-147" value="开启" style="rounded=1;whiteSpace=wrap;html=1;shadow=0;labelBackgroundColor=none;strokeColor=#000000;strokeWidth=1;fillColor=#ffffff;fontFamily=Verdana;fontSize=8;fontColor=#000000;align=center;" parent="77e6c97f196da883-3" vertex="1">
          <mxGeometry x="30" y="1730" width="100" height="36" as="geometry"/>
        </mxCell>
        <mxCell id="0Abd1LJX1tRPUPVhs411-149" value="关闭" style="rounded=1;whiteSpace=wrap;html=1;shadow=0;labelBackgroundColor=none;strokeColor=#000000;strokeWidth=1;fillColor=#ffffff;fontFamily=Verdana;fontSize=8;fontColor=#000000;align=center;" parent="77e6c97f196da883-3" vertex="1">
          <mxGeometry x="30" y="1797" width="100" height="36" as="geometry"/>
        </mxCell>
        <mxCell id="0Abd1LJX1tRPUPVhs411-159" value="" style="endArrow=none;html=1;" parent="77e6c97f196da883-3" edge="1">
          <mxGeometry width="50" height="50" relative="1" as="geometry">
            <mxPoint x="-355" y="2100" as="sourcePoint"/>
            <mxPoint x="395" y="2100" as="targetPoint"/>
          </mxGeometry>
        </mxCell>
        <mxCell id="77e6c97f196da883-4" value="PAD" style="swimlane;html=1;startSize=20;" parent="77e6c97f196da883-1" vertex="1">
          <mxGeometry x="485" y="20" width="235" height="2380" as="geometry"/>
        </mxCell>
        <mxCell id="0Abd1LJX1tRPUPVhs411-48" value="&lt;span style=&quot;font-size: 8px&quot;&gt;退料&lt;/span&gt;" style="rounded=1;whiteSpace=wrap;html=1;shadow=0;labelBackgroundColor=none;strokeColor=#000000;strokeWidth=1;fillColor=#ffffff;fontFamily=Verdana;fontSize=8;fontColor=#000000;align=center;" parent="77e6c97f196da883-4" vertex="1">
          <mxGeometry x="65" y="2206" width="100" height="36" as="geometry"/>
        </mxCell>
        <mxCell id="0Abd1LJX1tRPUPVhs411-96" value="" style="endArrow=none;html=1;" parent="77e6c97f196da883-4" edge="1">
          <mxGeometry width="50" height="50" relative="1" as="geometry">
            <mxPoint x="-515" y="190" as="sourcePoint"/>
            <mxPoint x="235" y="190" as="targetPoint"/>
          </mxGeometry>
        </mxCell>
        <mxCell id="0Abd1LJX1tRPUPVhs411-100" value="" style="endArrow=none;html=1;" parent="77e6c97f196da883-4" edge="1">
          <mxGeometry width="50" height="50" relative="1" as="geometry">
            <mxPoint x="-515" y="280" as="sourcePoint"/>
            <mxPoint x="235" y="280" as="targetPoint"/>
          </mxGeometry>
        </mxCell>
        <mxCell id="0Abd1LJX1tRPUPVhs411-104" value="" style="endArrow=none;html=1;" parent="77e6c97f196da883-4" edge="1">
          <mxGeometry width="50" height="50" relative="1" as="geometry">
            <mxPoint x="-515" y="469" as="sourcePoint"/>
            <mxPoint x="235" y="469" as="targetPoint"/>
          </mxGeometry>
        </mxCell>
        <mxCell id="0Abd1LJX1tRPUPVhs411-108" value="扫码入库" style="rounded=1;whiteSpace=wrap;html=1;shadow=0;labelBackgroundColor=none;strokeColor=#000000;strokeWidth=1;fillColor=#ffffff;fontFamily=Verdana;fontSize=8;fontColor=#000000;align=center;" parent="77e6c97f196da883-4" vertex="1">
          <mxGeometry x="70" y="570" width="100" height="36" as="geometry"/>
        </mxCell>
        <mxCell id="0Abd1LJX1tRPUPVhs411-110" value="扫码上架" style="rounded=1;whiteSpace=wrap;html=1;shadow=0;labelBackgroundColor=none;strokeColor=#000000;strokeWidth=1;fillColor=#ffffff;fontFamily=Verdana;fontSize=8;fontColor=#000000;align=center;" parent="77e6c97f196da883-4" vertex="1">
          <mxGeometry x="70" y="690" width="100" height="36" as="geometry"/>
        </mxCell>
        <mxCell id="0Abd1LJX1tRPUPVhs411-113" value="" style="endArrow=none;html=1;" parent="77e6c97f196da883-4" edge="1">
          <mxGeometry width="50" height="50" relative="1" as="geometry">
            <mxPoint x="-515" y="760" as="sourcePoint"/>
            <mxPoint x="235" y="760" as="targetPoint"/>
          </mxGeometry>
        </mxCell>
        <mxCell id="0Abd1LJX1tRPUPVhs411-115" value="" style="endArrow=none;html=1;" parent="77e6c97f196da883-4" edge="1">
          <mxGeometry width="50" height="50" relative="1" as="geometry">
            <mxPoint x="-515" y="1320" as="sourcePoint"/>
            <mxPoint x="235" y="1320" as="targetPoint"/>
          </mxGeometry>
        </mxCell>
        <mxCell id="0Abd1LJX1tRPUPVhs411-119" value="备料" style="rounded=1;whiteSpace=wrap;html=1;shadow=0;labelBackgroundColor=none;strokeColor=#000000;strokeWidth=1;fillColor=#ffffff;fontFamily=Verdana;fontSize=8;fontColor=#000000;align=center;" parent="77e6c97f196da883-4" vertex="1">
          <mxGeometry x="70" y="1350" width="100" height="36" as="geometry"/>
        </mxCell>
        <mxCell id="0Abd1LJX1tRPUPVhs411-129" value="点料" style="rounded=1;whiteSpace=wrap;html=1;shadow=0;labelBackgroundColor=none;strokeColor=#000000;strokeWidth=1;fillColor=#ffffff;fontFamily=Verdana;fontSize=8;fontColor=#000000;align=center;" parent="77e6c97f196da883-4" vertex="1">
          <mxGeometry x="70" y="1502" width="100" height="36" as="geometry"/>
        </mxCell>
        <mxCell id="0Abd1LJX1tRPUPVhs411-136" value="" style="endArrow=none;html=1;" parent="77e6c97f196da883-4" edge="1">
          <mxGeometry width="50" height="50" relative="1" as="geometry">
            <mxPoint x="-516" y="20" as="sourcePoint"/>
            <mxPoint x="234" y="20" as="targetPoint"/>
          </mxGeometry>
        </mxCell>
        <mxCell id="0Abd1LJX1tRPUPVhs411-99" value="" style="endArrow=none;html=1;" parent="77e6c97f196da883-4" edge="1">
          <mxGeometry width="50" height="50" relative="1" as="geometry">
            <mxPoint x="-515" y="950.300048828125" as="sourcePoint"/>
            <mxPoint x="235" y="950" as="targetPoint"/>
          </mxGeometry>
        </mxCell>
        <mxCell id="0Abd1LJX1tRPUPVhs411-138" value="" style="endArrow=none;html=1;" parent="77e6c97f196da883-4" edge="1">
          <mxGeometry width="50" height="50" relative="1" as="geometry">
            <mxPoint x="-515" y="1148.800048828125" as="sourcePoint"/>
            <mxPoint x="235" y="1148.5" as="targetPoint"/>
          </mxGeometry>
        </mxCell>
        <mxCell id="0Abd1LJX1tRPUPVhs411-146" value="超领" style="rounded=1;whiteSpace=wrap;html=1;shadow=0;labelBackgroundColor=none;strokeColor=#000000;strokeWidth=1;fillColor=#ffffff;fontFamily=Verdana;fontSize=8;fontColor=#000000;align=center;" parent="77e6c97f196da883-4" vertex="1">
          <mxGeometry x="65" y="1730" width="100" height="36" as="geometry"/>
        </mxCell>
        <mxCell id="0Abd1LJX1tRPUPVhs411-152" value="成品半成品入库" style="rounded=1;whiteSpace=wrap;html=1;shadow=0;labelBackgroundColor=none;strokeColor=#000000;strokeWidth=1;fillColor=#ffffff;fontFamily=Verdana;fontSize=8;fontColor=#000000;align=center;" parent="77e6c97f196da883-4" vertex="1">
          <mxGeometry x="65" y="1972" width="100" height="36" as="geometry"/>
        </mxCell>
        <mxCell id="L2qkuXwSwkqHX7sZDp8x-1" value="调拨" style="rounded=1;whiteSpace=wrap;html=1;shadow=0;labelBackgroundColor=none;strokeColor=#000000;strokeWidth=1;fillColor=#ffffff;fontFamily=Verdana;fontSize=8;fontColor=#000000;align=center;" vertex="1" parent="77e6c97f196da883-4">
          <mxGeometry x="67.5" y="820" width="100" height="36" as="geometry"/>
        </mxCell>
        <mxCell id="L2qkuXwSwkqHX7sZDp8x-5" value="杂收杂发" style="rounded=1;whiteSpace=wrap;html=1;shadow=0;labelBackgroundColor=none;strokeColor=#000000;strokeWidth=1;fillColor=#ffffff;fontFamily=Verdana;fontSize=8;fontColor=#000000;align=center;" vertex="1" parent="77e6c97f196da883-4">
          <mxGeometry x="65" y="990.0999755859375" width="100" height="36" as="geometry"/>
        </mxCell>
        <mxCell id="0Abd1LJX1tRPUPVhs411-12" value="" style="edgeStyle=orthogonalEdgeStyle;rounded=0;orthogonalLoop=1;jettySize=auto;html=1;exitX=1;exitY=0.5;exitDx=0;exitDy=0;entryX=0;entryY=0.5;entryDx=0;entryDy=0;" parent="77e6c97f196da883-1" source="0Abd1LJX1tRPUPVhs411-106" target="0Abd1LJX1tRPUPVhs411-108" edge="1">
          <mxGeometry relative="1" as="geometry"/>
        </mxCell>
        <mxCell id="0Abd1LJX1tRPUPVhs411-111" style="edgeStyle=orthogonalEdgeStyle;rounded=0;orthogonalLoop=1;jettySize=auto;html=1;entryX=0;entryY=0.5;entryDx=0;entryDy=0;" parent="77e6c97f196da883-1" source="0Abd1LJX1tRPUPVhs411-16" target="0Abd1LJX1tRPUPVhs411-110" edge="1">
          <mxGeometry relative="1" as="geometry">
            <Array as="points">
              <mxPoint x="70" y="728"/>
            </Array>
          </mxGeometry>
        </mxCell>
        <mxCell id="0Abd1LJX1tRPUPVhs411-112" style="edgeStyle=orthogonalEdgeStyle;rounded=0;orthogonalLoop=1;jettySize=auto;html=1;entryX=1;entryY=0.5;entryDx=0;entryDy=0;" parent="77e6c97f196da883-1" source="0Abd1LJX1tRPUPVhs411-108" target="0Abd1LJX1tRPUPVhs411-11" edge="1">
          <mxGeometry relative="1" as="geometry">
            <Array as="points">
              <mxPoint x="605" y="678"/>
            </Array>
          </mxGeometry>
        </mxCell>
        <mxCell id="0Abd1LJX1tRPUPVhs411-150" style="edgeStyle=orthogonalEdgeStyle;rounded=0;orthogonalLoop=1;jettySize=auto;html=1;entryX=0;entryY=0.5;entryDx=0;entryDy=0;" parent="77e6c97f196da883-1" source="0Abd1LJX1tRPUPVhs411-147" target="0Abd1LJX1tRPUPVhs411-146" edge="1">
          <mxGeometry relative="1" as="geometry"/>
        </mxCell>
        <mxCell id="0Abd1LJX1tRPUPVhs411-151" style="edgeStyle=orthogonalEdgeStyle;rounded=0;orthogonalLoop=1;jettySize=auto;html=1;entryX=1;entryY=0.5;entryDx=0;entryDy=0;exitX=0.5;exitY=1;exitDx=0;exitDy=0;" parent="77e6c97f196da883-1" source="0Abd1LJX1tRPUPVhs411-146" target="0Abd1LJX1tRPUPVhs411-149" edge="1">
          <mxGeometry relative="1" as="geometry"/>
        </mxCell>
        <mxCell id="0Abd1LJX1tRPUPVhs411-153" style="edgeStyle=orthogonalEdgeStyle;rounded=0;orthogonalLoop=1;jettySize=auto;html=1;" parent="77e6c97f196da883-1" source="0Abd1LJX1tRPUPVhs411-152" target="0Abd1LJX1tRPUPVhs411-31" edge="1">
          <mxGeometry relative="1" as="geometry"/>
        </mxCell>
        <mxCell id="0Abd1LJX1tRPUPVhs411-82" style="edgeStyle=orthogonalEdgeStyle;rounded=0;orthogonalLoop=1;jettySize=auto;html=1;exitX=1;exitY=0.5;exitDx=0;exitDy=0;entryX=0;entryY=0.5;entryDx=0;entryDy=0;" parent="77e6c97f196da883-1" source="0Abd1LJX1tRPUPVhs411-68" target="L2qkuXwSwkqHX7sZDp8x-1" edge="1">
          <mxGeometry relative="1" as="geometry"/>
        </mxCell>
        <mxCell id="L2qkuXwSwkqHX7sZDp8x-4" style="edgeStyle=orthogonalEdgeStyle;rounded=0;orthogonalLoop=1;jettySize=auto;html=1;exitX=0.5;exitY=1;exitDx=0;exitDy=0;entryX=1;entryY=0.5;entryDx=0;entryDy=0;" edge="1" parent="77e6c97f196da883-1" source="L2qkuXwSwkqHX7sZDp8x-1" target="0Abd1LJX1tRPUPVhs411-80">
          <mxGeometry relative="1" as="geometry">
            <mxPoint x="465" y="868" as="sourcePoint"/>
            <mxPoint x="563" y="868" as="targetPoint"/>
          </mxGeometry>
        </mxCell>
        <mxCell id="0Abd1LJX1tRPUPVhs411-89" style="edgeStyle=orthogonalEdgeStyle;rounded=0;orthogonalLoop=1;jettySize=auto;html=1;" parent="77e6c97f196da883-1" source="0Abd1LJX1tRPUPVhs411-72" target="L2qkuXwSwkqHX7sZDp8x-5" edge="1">
          <mxGeometry relative="1" as="geometry"/>
        </mxCell>
        <mxCell id="L2qkuXwSwkqHX7sZDp8x-7" style="edgeStyle=orthogonalEdgeStyle;rounded=0;orthogonalLoop=1;jettySize=auto;html=1;exitX=0.5;exitY=1;exitDx=0;exitDy=0;entryX=1;entryY=0.5;entryDx=0;entryDy=0;" edge="1" parent="77e6c97f196da883-1" source="L2qkuXwSwkqHX7sZDp8x-5" target="0Abd1LJX1tRPUPVhs411-87">
          <mxGeometry relative="1" as="geometry">
            <mxPoint x="465" y="1038.0999755859375" as="sourcePoint"/>
            <mxPoint x="560" y="1038.0999755859375" as="targetPoint"/>
          </mxGeometry>
        </mxCell>
        <mxCell id="0Abd1LJX1tRPUPVhs411-97" value="" style="endArrow=none;html=1;" parent="1" edge="1">
          <mxGeometry width="50" height="50" relative="1" as="geometry">
            <mxPoint x="40" as="sourcePoint"/>
            <mxPoint x="40" y="2360" as="targetPoint"/>
          </mxGeometry>
        </mxCell>
        <mxCell id="0Abd1LJX1tRPUPVhs411-102" value="料号同步" style="text;html=1;verticalAlign=middle;whiteSpace=wrap;fontStyle=1" parent="1" vertex="1">
          <mxGeometry x="48" y="20" width="20" height="70" as="geometry"/>
        </mxCell>
        <mxCell id="0Abd1LJX1tRPUPVhs411-103" value="仓别同步" style="text;html=1;verticalAlign=middle;whiteSpace=wrap;fontStyle=1" parent="1" vertex="1">
          <mxGeometry x="48" y="180" width="20" height="70" as="geometry"/>
        </mxCell>
        <mxCell id="0Abd1LJX1tRPUPVhs411-105" value="来料入库&lt;br&gt;检验" style="text;html=1;verticalAlign=middle;whiteSpace=wrap;fontStyle=1" parent="1" vertex="1">
          <mxGeometry x="48" y="290" width="20" height="70" as="geometry"/>
        </mxCell>
        <mxCell id="0Abd1LJX1tRPUPVhs411-114" value="来料入库" style="text;html=1;verticalAlign=middle;whiteSpace=wrap;fontStyle=1" parent="1" vertex="1">
          <mxGeometry x="48" y="530" width="20" height="70" as="geometry"/>
        </mxCell>
        <mxCell id="0Abd1LJX1tRPUPVhs411-116" value="接收工单" style="text;html=1;verticalAlign=middle;whiteSpace=wrap;fontStyle=1" parent="1" vertex="1">
          <mxGeometry x="48" y="1170" width="20" height="70" as="geometry"/>
        </mxCell>
        <mxCell id="0Abd1LJX1tRPUPVhs411-160" value="工单备料" style="text;html=1;verticalAlign=middle;whiteSpace=wrap;fontStyle=1" parent="1" vertex="1">
          <mxGeometry x="48" y="1380" width="20" height="70" as="geometry"/>
        </mxCell>
        <mxCell id="0Abd1LJX1tRPUPVhs411-161" value="超领" style="text;html=1;verticalAlign=middle;whiteSpace=wrap;fontStyle=1" parent="1" vertex="1">
          <mxGeometry x="48" y="1670" width="20" height="70" as="geometry"/>
        </mxCell>
        <mxCell id="0Abd1LJX1tRPUPVhs411-162" value="成品半成品入库" style="text;html=1;verticalAlign=middle;whiteSpace=wrap;fontStyle=1" parent="1" vertex="1">
          <mxGeometry x="48" y="1950" width="20" height="70" as="geometry"/>
        </mxCell>
        <mxCell id="0Abd1LJX1tRPUPVhs411-163" value="工单退料" style="text;html=1;verticalAlign=middle;whiteSpace=wrap;fontStyle=1" parent="1" vertex="1">
          <mxGeometry x="48" y="2180" width="20" height="70" as="geometry"/>
        </mxCell>
      </root>
    </mxGraphModel>
  </diagram>
</mxfile>
